<?xml version="1.0" encoding="utf-8"?>
<!-- Generator: Adobe Illustrator 19.0.0, SVG Export Plug-In . SVG Version: 6.00 Build 0)  -->
<svg version="1.1" id="Layer_1" xmlns="http://www.w3.org/2000/svg" xmlns:xlink="http://www.w3.org/1999/xlink" x="0px" y="0px"
	 viewBox="-297 389 16 16" style="enable-background:new -297 389 16 16;" xml:space="preserve">
<style type="text/css">
	.st0{fill:#B94A48;}
</style>
<path class="st0" d="M-290,389.7l-6.8,13.4c-0.5,1,0,1.8,1.1,1.8h13.2c1.1,0,1.6-0.8,1.1-1.8l-6.8-13.4
	C-288.7,388.8-289.5,388.8-290,389.7z M-287.6,402.4c0,0.8-0.7,1.5-1.5,1.5c-0.8,0-1.5-0.7-1.5-1.5c0-0.8,0.7-1.5,1.5-1.5
	C-288.3,400.9-287.6,401.5-287.6,402.4z M-287.8,394.9v4c0,0.5-0.5,1-1,1h-0.6c-0.5,0-1-0.5-1-1v-4c0-0.6,0.5-1,1-1h0.6
	C-288.2,393.9-287.8,394.3-287.8,394.9z"/>
</svg>
